<svg xmlns="http://www.w3.org/2000/svg" xmlns:xlink="http://www.w3.org/1999/xlink" width="43" height="40" viewBox="0 0 43 40">
    <defs>
        <path id="a" d="M.12.125h29.84V27H.12z"/>
        <path id="c" d="M0 0h11v14H0z"/>
    </defs>
    <g fill="none" fill-rule="evenodd" opacity=".2">
        <g transform="translate(7 13)">
            <mask id="b" fill="#fff">
                <use xlink:href="#a"/>
            </mask>
            <path fill="#000" d="M15.072 23.549c2.112 0 4.223.03 6.334-.008 2.42-.043 4.576-1.853 5.111-4.222.48-2.123-.622-4.35-2.814-5.48-.69-.357-.822-.754-.757-1.504.456-5.32-4.18-9.594-9.318-8.636-3.973.74-6.577 4.142-6.48 8.446.014.603.214 1.195-.6 1.614-2.4 1.234-3.467 3.422-2.942 5.716.529 2.313 2.804 4.056 5.344 4.072 2.04.013 4.082.003 6.122.002zM4.476 7.337c.193-.328.404-.648.578-.987C7.387 1.806 12.299-.632 17.19.334c4.84.956 8.473 5.04 9.063 10.098.062.535.386 1.141.772 1.518 2.539 2.475 3.57 5.39 2.539 8.89-.953 3.231-4.02 5.909-7.278 6.012-4.85.154-9.72.25-14.56-.033-3.578-.209-5.981-2.541-7.183-5.97-1.089-3.107-.016-6.666 2.556-8.861.51-.435.687-.874.762-1.528.122-1.063.42-2.105.643-3.156l-.028.033z" mask="url(#b)"/>
        </g>
        <path fill="#000" d="M17.585 7.627c-.287-.831-.47-1.724-.89-2.478-.495-.887-1.307-.921-2.053-.262-1.434 1.267-1.755 4.442-.604 5.982.636.85 1.402.925 2.151.172.912-.916 1.199-2.086 1.396-3.414M21 7.592c-.254 2.181-.833 4.075-2.22 5.646-2.317 2.62-5.876 2.27-7.699-.73-1.729-2.846-1.342-7.219.86-9.7 2.39-2.694 6.082-2.35 7.785.849.636 1.194.861 2.617 1.274 3.935M8.56 19.064c-.227-2.046-.904-3.462-2.454-4.396-1.335-.805-2.452-.28-2.553 1.192-.117 1.71.559 3.16 2.01 4.176.527.369 1.489.677 1.989.466.546-.23.788-1.093 1.008-1.438m3.098 2.1c-.056.046-.137.08-.164.138-1.399 2.944-5.513 3.892-8.84.734C.499 19.99-.481 17.502.229 14.618c.736-2.993 3.785-4.389 6.818-3.188 3.368 1.333 5.567 5.303 4.8 8.664-.084.367-.15.738-.222 1.105l.033-.035M39.67 13.573c-.02-.265.04-.545-.068-.731-.314-.534-.602-1.315-1.077-1.461-.475-.147-1.307.21-1.73.6-1.276 1.18-1.72 2.701-1.372 4.384.305 1.474 1.45 1.826 2.625.815 1.112-.957 1.572-2.215 1.622-3.607M32 15.396c.01-1.943.632-3.678 1.902-5.182 1.585-1.878 3.71-2.619 5.67-2 1.982.626 3.304 2.519 3.418 4.93.089 1.863-.434 3.572-1.504 5.112-1.52 2.188-3.937 3.196-6.034 2.552-2.167-.667-3.469-2.707-3.452-5.412"/>
        <g transform="translate(22)">
            <mask id="d" fill="#fff">
                <use xlink:href="#c"/>
            </mask>
            <path fill="#000" d="M7.808 6.813c-.318-.978-.467-1.771-.824-2.457-.598-1.151-1.554-1.221-2.44-.28-1.244 1.32-1.518 4.026-.565 5.576.7 1.138 1.754 1.282 2.502.162.616-.923.922-2.053 1.327-3.001M0 7.056c.056-1.998.676-3.953 2.24-5.518 2.294-2.294 5.624-1.983 7.475.674 2.033 2.92 1.601 7.687-.926 10.209-2.348 2.344-5.665 2.047-7.537-.684C.322 10.379-.014 8.849 0 7.056" mask="url(#d)"/>
        </g>
    </g>
</svg>
