<svg xmlns="http://www.w3.org/2000/svg" xmlns:xlink="http://www.w3.org/1999/xlink" width="233" height="86" viewBox="0 0 233 86">
    <defs>
        <filter id="a" width="106.2%" height="117.9%" x="-3.1%" y="-6.4%" filterUnits="objectBoundingBox">
            <feOffset dy="2" in="SourceAlpha" result="shadowOffsetOuter1"/>
            <feGaussianBlur in="shadowOffsetOuter1" result="shadowBlurOuter1" stdDeviation="2"/>
            <feColorMatrix in="shadowBlurOuter1" result="shadowMatrixOuter1" values="0 0 0 0 0 0 0 0 0 0.678431373 0 0 0 0 0.368627451 0 0 0 1 0"/>
            <feMerge>
                <feMergeNode in="shadowMatrixOuter1"/>
                <feMergeNode in="SourceGraphic"/>
            </feMerge>
        </filter>
        <path id="b" d="M.74.387h30.043V78H.739z"/>
        <path id="d" d="M.82.642h37.008v65.922H.821z"/>
    </defs>
    <g fill="none" fill-rule="evenodd" filter="url(#a)" transform="translate(4 2)">
        <path fill="#FFF" d="M35.828 31.828c-.633 6.365-1.864 9.32-1.864 17.089 0 7.77.488 13.003 1.466 15.697.228.516.345 1.131.345 1.849 0 .716-.29 1.303-.863 1.763-.574.458-1.15.716-1.724.774h-.948c-2.702-.058-5.073-.574-7.111-1.548-2.041-.975-3.061-2.522-3.061-4.645 0-2.924-.259-4.386-.776-4.386l-.604.516c-1.953 3.9-4.454 6.365-7.499 7.397-.978.344-1.896.516-2.759.516-2.126 0-3.936-.718-5.43-2.15-1.496-1.433-2.558-3.383-3.19-5.849C.603 54.551 0 50.41 0 46.423c0-3.985.114-7.382.344-10.191.23-2.81.617-5.92 1.164-9.333.546-3.41 1.38-6.521 2.5-9.332A43.825 43.825 0 0 1 8.06 9.74a17.073 17.073 0 0 1 6.12-5.676C16.68 2.69 19.51 2 22.671 2c4.483 0 7.069.918 7.759 2.752.401.976.603 2.38.603 4.215 0 4.416-1.034 6.623-3.103 6.623-.69 0-1.496-.459-2.413-1.377-.92-.916-2.17-1.376-3.75-1.376-1.582 0-3.076.746-4.483 2.236-1.41 1.492-2.428 3.384-3.06 5.676-1.15 4.187-1.725 8.143-1.725 11.87 0 6.825.862 11.497 2.587 14.019.918 1.32 2.125 1.978 3.62 1.978 1.494 0 2.658-.34 3.318-1.917.66-1.577 1.374-2.333 1.374-4.569 0-2.236.06-2.218-.716-4.97s-1.164-4.215-1.164-4.386c0-1.032.488-1.92 1.465-2.666 2.643-1.835 6.035-2.753 10.173-2.753 1.897 0 2.844.718 2.844 2.15l-.172 2.323z"/>
        <g transform="translate(78)">
            <mask id="c" fill="#fff">
                <use xlink:href="#b"/>
            </mask>
            <path fill="#FFF" d="M23.935 23.817l3.424-.086c1.596 0 2.396.861 2.396 2.584 0 2.298-.8 4.064-2.396 5.298-1.598 1.236-3.595 1.938-5.991 2.11-.856 0-1.642.216-2.354.647-.715.43-1.1.904-1.156 1.42-.4 4.193-.599 9.075-.599 14.645s.285 11.056.856 16.453c.171.573.257 1.22.257 1.938 0 .717-.171 1.422-.514 2.11-1.084 1.952-2.682 3.532-4.793 4.738C10.212 77.224 7.687 78 5.491 78c-2.197 0-3.295-.804-3.295-2.412l.342-1.723c2.225-9.189 3.338-21.391 3.338-36.61v-1.034c0-.344-.143-.516-.428-.516-2.169 0-4.616-.976-4.616-2.93 0-1.147-.425-2.769.546-4.866.97-2.096 4.27-3.287 5.354-3.575a37.5 37.5 0 0 0 .085-2.756c0-5.283-.856-8.614-2.567-9.993-.572-.689-.857-1.55-.857-2.584 0-1.837 1.199-3.473 3.596-4.91C11.553 1.623 16.887.387 22.994.387c1.483 0 2.696.058 3.637.172.942.116 1.868.504 2.782 1.163.912.66 1.37 1.623 1.37 2.886 0 2.125-1.541 3.647-4.623 4.566-3.08.919-5.164 2.182-6.248 3.79-1.084 1.608-1.626 3.847-1.626 6.719 0 .632.057 1.58.172 2.842.055.862 1.883 1.292 5.477 1.292" mask="url(#c)"/>
        </g>
        <path fill="#FFF" d="M118.739 39.436c0 .343.116.629.348.856.23.286.522.428.87.428 3.304-.285 5.506-1.826 6.608-4.622.29-.628.492-1.37.61-2.226-.06-1.997-.87-2.996-2.436-2.996-1.798 0-3.174.856-4.13 2.568-.957 1.712-1.58 3.71-1.87 5.992M124.696 23c3.855 0 6.87.972 9.043 2.911 2.174 1.94 3.261 4.88 3.261 8.816 0 3.94-1.58 7.192-4.74 9.76-3.16 2.568-7.145 3.852-11.955 3.852-.696 0-1.044.342-1.044 1.027 0 1.37.507 2.554 1.522 3.552 1.013 1 2.404 1.498 4.174 1.498 1.768 0 3.362-.798 4.781-2.396 1.421-1.597 2.667-2.397 3.74-2.397 1.072 0 1.926.457 2.566 1.37.637.913.956 2.211.956 3.894 0 1.684-.421 3.368-1.26 5.051-.842 1.683-1.842 2.953-3 3.809a14.978 14.978 0 0 1-3.914 2.054C126.68 66.601 124.405 67 122 67c-2.407 0-4.653-.571-6.739-1.712-2.087-1.14-3.711-2.682-4.87-4.623-2.261-3.88-3.391-8.174-3.391-12.883 0-4.708.579-8.801 1.739-12.284 1.159-3.48 3.145-6.433 5.957-8.86 2.811-2.425 6.143-3.638 10-3.638"/>
        <path fill="#FFF" d="M151.468 10.062l-.176 4.118c0 1.488.335 2.317 1.007 2.489.671.17 1.328.256 1.971.256.642 0 1.605-.056 2.89-.17 1.227 0 1.84.77 1.84 2.315 0 2.917-2.132 5.178-6.394 6.779-.584.229-.993.743-1.225 1.544-.35 3.49-.526 7.579-.526 12.269s.175 7.779.526 9.266c.29 1.373 1.341 2.202 3.152 2.487.408 0 .788.201 1.14.601.641.744.962 1.473.962 2.188 0 .715-.059 1.402-.175 2.059-.117.658-.393 1.573-.832 2.745a15.653 15.653 0 0 1-1.664 3.26c-.672 1.001-1.68 1.875-3.022 2.617-1.344.743-2.862 1.115-4.555 1.115-2.92 0-5.023-1.685-6.307-5.061-.467-1.316-.701-2.888-.701-4.719l.701-23.078c0-2.803-.162-5.091-.481-6.865-.323-1.772-1.446-3.432-3.373-4.976-.817-.57-1.226-1.373-1.226-2.402 0-1.03.525-2.06 1.576-3.089 9.234-.442 6.161-5.004 8.848-9.18.816-1.085 1.839-1.63 3.065-1.63 1.985 0 2.979 1.688 2.979 5.062M183.385 49.424c3.077 0 4.615 1.919 4.615 5.756-.057 2.326-.542 4.346-1.453 6.061-.911 1.716-1.923 2.995-3.034 3.837-1.11.844-2.465 1.496-4.06 1.963-2.108.639-4.416.959-6.923.959-2.508 0-4.774-.611-6.795-1.831a12.3 12.3 0 0 1-4.658-4.971c-2.05-3.953-3.077-8.721-3.077-14.302 0-6.105 1.338-11.482 4.017-16.135 1.31-2.383 3.148-4.273 5.513-5.668C169.893 23.697 172.7 23 175.95 23c3.247 0 6.026.858 8.333 2.573 2.307 1.715 3.461 4.375 3.461 7.979 0 4.303-1.91 6.454-5.727 6.454-.97 0-1.78-.363-2.435-1.091-.657-.726-.983-1.452-.983-2.18 0-.726-.043-1.337-.128-1.83-.086-.495-.429-1.164-1.026-2.007-.599-.842-1.355-1.264-2.265-1.264-3.59 0-5.385 3.662-5.385 10.987 0 2.212.2 4.391.598 6.542.856 4.07 2.45 6.105 4.787 6.105 1.766 0 2.962-.93 3.59-2.791.17-.814.712-1.527 1.623-2.137a5.26 5.26 0 0 1 2.992-.916"/>
        <g transform="translate(187)">
            <mask id="e" fill="#fff">
                <use xlink:href="#d"/>
            </mask>
            <path fill="#FFF" d="M15.555 24.816l.086 2.23c.115.4.289.599.52.599.23 0 .463-.114.693-.343.751-1.142 1.993-2.186 3.727-3.129 1.734-.943 3.38-1.414 4.94-1.414 2.37 0 4.174.915 5.417 2.743 1.242 1.83 2.037 3.915 2.384 6.259.346 4 .52 7.357.52 10.072 0 2.714-.059 5.215-.174 7.5 0 4.059.925 6.659 2.773 7.8.924.516 1.387 1.159 1.387 1.93 0 .771-.202 1.472-.606 2.1-.925 1.372-2.297 2.458-4.117 3.258-1.82.799-3.395 1.228-4.724 1.285l-1.993.171c-1.733-.057-2.89-.543-3.466-1.456-.579-.914-.868-2.343-.868-4.287l.78-14.744a39.62 39.62 0 0 0 .088-2.915c0-4.685-1.07-7.029-3.208-7.029-1.386 0-2.47.801-3.249 2.4-.78 1.6-1.214 3.386-1.301 5.358a149.45 149.45 0 0 0-.13 6.472l.52 10.63c0 1.886-.664 3.287-1.993 4.2-2.023 1.371-4.494 2.058-7.41 2.058-2.918 0-4.377-.943-4.377-2.829l.26-1.543c1.849-8.858 2.773-20.63 2.773-35.318.058-2.058.087-4.33.087-6.816 0-2.485-.043-4.17-.13-5.057a5.31 5.31 0 0 0-.823-2.4c-.463-.714-1.126-1.357-1.994-1.93-.75-.57-1.126-1.227-1.126-1.97 0-1.943 1.617-3.772 4.854-5.487C8.91 1.5 11.48.642 13.388.642c2.137 0 3.207 1.6 3.207 4.801 0 2.344-.174 5.658-.52 9.943-.347 4.287-.52 7.43-.52 9.43" mask="url(#e)"/>
        </g>
        <path fill="#FFF" d="M72.05 56.483l.012.014c-9.718 14.161-21.813 8.948-25.858 6.608-.335-.194-.249-.758.125-.81l.037-.004c.39-.057.457-.665.092-.826-9.42-4.146-9.642-13.718-9.409-17.073.016-.233.303-.275.375-.056.449 1.37 1.321 2.307 1.904 2.812.16.138.376-.054.297-.261-3.87-9.977 1.898-17.376 4.71-20.216.165-.168.406.061.292.277-1.428 2.711-.952 5.757-.952 5.757 7.488-13.17 16.425-9.64 19.227-8.075.196.109.11.435-.107.413-8.797-.932-14.108 7.432-15.576 10.117-.104.191.085.414.259.304.708-.447 1.587-.817 2.226-1.056.197-.074.342.208.19.369-5.659 6.013-2.798 13.08-1.357 15.765.11.208.396.09.357-.149-.266-1.626-.065-3.14.14-4.092.05-.237.351-.215.383.027 1.725 13.354 15.288 6.603 15.288 6.603s2.004-.902 2.797-1.195c1.831-.677 5.498-.063 5.498 2.087a4.11 4.11 0 0 1-.95 2.66"/>
        <path fill="#FFF" d="M70.39 60.875c-.36.349-.785-.099-.484-.511 2.59-3.553 7.415-8.286 3.397-18.419-.435-1.097-1.206-2.005-2.07-2.733-1.095-.923-2.592-2.149-2.92-2.247-.49-.146-1.227-1.888-1.25-2.037-.128-.896-.335-3.883 2.47-4.787 3.311-1.067 10.76 3.88 9.273 16.843-.685 5.987-5.266 10.84-8.416 13.89M63.651 26.374c-.056.058-.11.122-.163.194-.683.933-.685 2.192.221 3.219.85.963 1.917 1.652 2.673.882.052-.052.101-.111.15-.177.812-1.11.498-2.52-.409-3.549-.839-.95-1.794-1.26-2.472-.569M62.354 31.462a1.537 1.537 0 0 0-.276.555c-.306 1.088.314 2.384 1.453 2.812.95.36 1.658.115 2.06-.382.08-.1.147-.209.203-.326.632-1.336-.289-2.308-1.39-2.859-.768-.384-1.591-.37-2.05.2M63.02 37.239c-.013.079-.02.163-.02.25-.006.83.886 1.505 1.988 1.51 1.054.007 1.873-.602 1.995-1.376.005-.037.01-.074.012-.112.084-1.2-.885-1.506-1.99-1.51-1.01-.007-1.848.367-1.985 1.238M68.923 24.07c-.74.311-1.11 1.596-.828 2.916.288 1.355 1.15 2.235 1.927 1.965a.707.707 0 0 0 .054-.02c.74-.311 1.111-1.595.83-2.918-.288-1.353-1.15-2.235-1.927-1.964a.643.643 0 0 0-.056.021"/>
    </g>
</svg>
