<svg xmlns="http://www.w3.org/2000/svg" xmlns:xlink="http://www.w3.org/1999/xlink" width="69" height="76" viewBox="0 0 69 76">
    <defs>
        <path id="a" d="M0 .002h68.943V76H0z"/>
    </defs>
    <g fill="none" fill-rule="evenodd">
        <g>
            <mask id="b" fill="#fff">
                <use xlink:href="#a"/>
            </mask>
            <path fill="#FFF" d="M58.176 14.687c.738-.174 1.389-.398 2.056-.472 2.755-.306 5.234.24 7.089 2.492.795.966 1.255 2.101 1.46 3.326.105.629.15 1.274.15 1.912.01 8.7 0 17.398.013 26.097.003 2.438-.31 4.834-.834 7.208-.643 2.906-1.673 5.666-3.172 8.243-2.922 5.02-7.154 8.49-12.584 10.518-2.968 1.109-6.052 1.707-9.21 1.884-1.647.093-3.305.141-4.953.072-2.52-.105-4.99-.566-7.408-1.3-6.15-1.872-11.303-5.345-15.853-9.793-1.877-1.834-3.542-3.858-5.254-5.842-2.683-3.108-5.098-6.42-7.592-9.673-.9-1.175-1.608-2.453-1.92-3.919-.404-1.899-.059-3.664.989-5.289.91-1.41 2.056-2.583 3.587-3.322 1.838-.888 3.752-.932 5.685-.375 3.109.895 5.59 2.77 7.74 5.106.695.755 1.3 1.6 1.887 2.444.758 1.089 1.679 1.906 3.032 2.135.74.125 1.44.052 2.113-.324a1.978 1.978 0 0 1 2.645.708c.554.921.289 2.09-.633 2.685-1.087.702-2.305.95-3.58.922-3.02-.065-5.248-1.51-6.887-3.975-1.627-2.448-3.73-4.357-6.434-5.564-.783-.348-1.605-.594-2.472-.517-.451.04-.944.099-1.33.31-1.316.725-2.302 1.757-2.512 3.316-.147 1.09.356 2.017.967 2.862.98 1.356 2.009 2.676 3.01 4.017 2.45 3.277 5.075 6.412 7.805 9.455 3.183 3.548 6.806 6.566 11.065 8.776 2.46 1.277 5.044 2.207 7.765 2.745 2.823.557 5.67.616 8.53.39 1.846-.145 3.667-.424 5.457-.894 6.42-1.684 11.134-5.43 13.925-11.491a26.137 26.137 0 0 0 2.28-8.603 44.65 44.65 0 0 0 .172-3.996c.016-8.359.014-16.718-.002-25.077a6.51 6.51 0 0 0-.268-1.785c-.298-1.023-1.014-1.66-2.068-1.887-.868-.186-1.742-.207-2.591.08-.937.317-1.455 1.04-1.671 1.958a7.509 7.509 0 0 0-.188 1.69c-.013 5.412-.005 10.823-.007 16.234 0 1.083-.477 1.79-1.399 2.105-1.155.396-2.452-.444-2.558-1.66-.02-.217-.015-.437-.015-.655-.003-8.832-.006-17.665-.005-26.497 0-.714-.11-1.401-.414-2.049-.337-.716-.876-1.21-1.645-1.44a5.073 5.073 0 0 0-2.522-.106c-1.11.232-1.902 1.113-2.115 2.374a7.448 7.448 0 0 0-.108 1.229c-.006 7.704-.008 15.408 0 23.112 0 .902-.331 1.58-1.161 1.965-1.296.603-2.762-.312-2.768-1.739-.013-3.033-.006-6.066-.006-9.1 0-5.98.01-11.962-.016-17.943-.002-.653-.145-1.327-.346-1.952C42.792 4.87 42.08 4.312 41.1 4.1c-.846-.181-1.69-.204-2.521.052-1.041.321-1.554 1.123-1.788 2.116-.11.467-.154.96-.155 1.44-.009 8.784-.004 17.568-.016 26.352-.001.375-.076.782-.236 1.118-.388.815-1.32 1.222-2.171 1.023-.89-.208-1.518-.978-1.557-1.919-.01-.279-.003-.558-.003-.837 0-6.66.007-13.321-.013-19.982a5.054 5.054 0 0 0-.311-1.662c-.33-.918-1.03-1.467-1.996-1.676a5.251 5.251 0 0 0-2.168-.032c-1.18.236-1.83 1.007-2.098 2.113a7.26 7.26 0 0 0-.191 1.69c-.01 9.439-.004 18.878-.006 28.317 0 .977-.602 1.793-1.447 1.997-.95.23-1.868-.145-2.276-.998a2.594 2.594 0 0 1-.227-1.083c-.012-9.549-.01-19.097-.009-28.645 0-1.319.277-2.582.872-3.756 1.067-2.106 2.807-3.28 5.142-3.6 1.536-.21 3.03-.055 4.472.517.32.127.325-.067.348-.268a7.792 7.792 0 0 1 .887-2.866C34.647 1.646 36.218.532 38.31.156c1.727-.31 3.413-.166 5.03.545 1.638.72 2.757 1.95 3.427 3.589.13.321.253.365.558.22 2.475-1.18 6.452-.899 8.58 1.184 1.29 1.26 2.01 2.8 2.169 4.566.118 1.325.075 2.664.103 3.997.003.14 0 .281 0 .43" mask="url(#b)"/>
        </g>
        <path fill="#FFF" d="M43.192 40c2.956.04 5.265.226 7.52.836 2.746.743 5.3 1.877 7.51 3.686 1.16.95.994 2.637-.308 3.263-.74.355-1.457.267-2.084-.24-2.1-1.694-4.52-2.696-7.15-3.227-3.072-.62-6.161-.616-9.242-.09-.903.155-1.792.436-2.658.74-1.115.39-2.2-.005-2.635-1.043-.416-.992.09-2.087 1.171-2.526 1.494-.606 3.053-.964 4.652-1.136 1.28-.137 2.565-.21 3.224-.263"/>
    </g>
</svg>
