<svg xmlns="http://www.w3.org/2000/svg" xmlns:xlink="http://www.w3.org/1999/xlink" width="41" height="45" viewBox="0 0 41 45">
    <defs>
        <path id="a" d="M0 .001h40.966V45H0z"/>
    </defs>
    <g fill="none" fill-rule="evenodd">
        <g>
            <mask id="b" fill="#fff">
                <use xlink:href="#a"/>
            </mask>
            <path fill="#303843" d="M34.568 8.696c.44-.103.826-.235 1.222-.28 1.637-.18 3.11.143 4.212 1.476.473.572.746 1.245.868 1.97.062.372.089.754.09 1.132.005 5.15-.001 10.301.006 15.452.003 1.444-.183 2.862-.495 4.268-.382 1.72-.994 3.355-1.885 4.88-1.736 2.973-4.25 5.027-7.477 6.228-1.764.657-3.596 1.011-5.472 1.116a30.18 30.18 0 0 1-2.944.043 17.69 17.69 0 0 1-4.402-.77c-3.654-1.108-6.716-3.165-9.42-5.798-1.115-1.087-2.104-2.285-3.122-3.46-1.593-1.84-3.028-3.802-4.51-5.727-.536-.696-.956-1.453-1.141-2.32-.24-1.125-.035-2.17.587-3.132.54-.835 1.222-1.53 2.131-1.968 1.093-.525 2.23-.551 3.379-.222 1.847.53 3.32 1.64 4.599 3.024.413.447.772.947 1.121 1.447.45.645.998 1.129 1.802 1.264.44.074.855.031 1.255-.191a1.178 1.178 0 0 1 1.572.419c.33.545.171 1.237-.376 1.59-.646.415-1.37.562-2.127.546-1.795-.04-3.12-.895-4.093-2.354-.967-1.45-2.216-2.58-3.823-3.295-.465-.206-.954-.351-1.469-.306-.268.024-.56.059-.79.184-.782.429-1.368 1.04-1.493 1.963-.087.646.212 1.194.575 1.694.582.803 1.193 1.585 1.789 2.379a81.127 81.127 0 0 0 4.637 5.599c1.892 2.1 4.044 3.887 6.575 5.196a17.272 17.272 0 0 0 4.614 1.625c1.677.33 3.37.365 5.069.231a18.494 18.494 0 0 0 3.242-.53c3.815-.997 6.616-3.214 8.274-6.803a15.433 15.433 0 0 0 1.356-5.094c.072-.785.1-1.577.102-2.366.009-4.95.008-9.899-.002-14.848 0-.354-.06-.718-.16-1.057-.176-.606-.601-.983-1.228-1.117-.516-.11-1.035-.123-1.54.047-.556.187-.864.615-.993 1.16-.076.324-.11.666-.111 1-.008 3.204-.003 6.408-.004 9.612 0 .641-.284 1.06-.831 1.247-.687.234-1.458-.263-1.52-.984-.012-.128-.01-.258-.01-.387-.001-5.23-.003-10.46-.002-15.69 0-.422-.066-.829-.246-1.212-.2-.424-.52-.717-.978-.853a3.025 3.025 0 0 0-1.499-.063c-.66.137-1.13.66-1.256 1.406-.04.239-.064.484-.064.727-.004 4.562-.005 9.123 0 13.685 0 .534-.197.935-.69 1.164a1.148 1.148 0 0 1-1.645-1.03c-.008-1.796-.004-3.592-.004-5.388 0-3.541.007-7.083-.009-10.624a3.884 3.884 0 0 0-.205-1.156c-.182-.561-.605-.892-1.188-1.017-.502-.107-1.004-.12-1.498.031-.618.19-.923.665-1.062 1.253a3.76 3.76 0 0 0-.092.853c-.006 5.2-.003 10.402-.01 15.603 0 .222-.045.463-.14.662-.23.482-.784.723-1.29.605a1.198 1.198 0 0 1-.925-1.136c-.007-.165-.002-.33-.002-.495 0-3.944.004-7.888-.008-11.832a2.983 2.983 0 0 0-.185-.984c-.196-.543-.611-.869-1.186-.992a3.131 3.131 0 0 0-1.288-.02c-.7.14-1.087.597-1.247 1.252a4.285 4.285 0 0 0-.113 1c-.006 5.59-.003 11.178-.003 16.767 0 .578-.358 1.062-.86 1.183-.565.136-1.11-.086-1.352-.591a1.531 1.531 0 0 1-.136-.642c-.007-5.653-.005-11.307-.005-16.96 0-.781.165-1.529.518-2.224.634-1.247 1.668-1.942 3.055-2.132a5.198 5.198 0 0 1 2.658.306c.19.075.193-.04.207-.159a4.602 4.602 0 0 1 .527-1.696C20.588.975 21.52.314 22.764.093c1.026-.184 2.027-.099 2.988.322.974.427 1.638 1.155 2.036 2.125.078.19.15.216.332.13 1.47-.698 3.834-.532 5.099.701a4.204 4.204 0 0 1 1.288 2.704c.07.784.045 1.578.061 2.367.002.083 0 .166 0 .254" mask="url(#b)" opacity=".2"/>
        </g>
        <path fill="#303843" d="M30.027 24.523c1.648.464 3.18 1.173 4.506 2.303.696.594.597 1.648-.185 2.04-.443.221-.874.167-1.25-.15-1.26-1.06-2.712-1.685-4.29-2.017-1.843-.388-3.697-.385-5.545-.056-.542.096-1.075.272-1.595.462-.669.244-1.32-.003-1.581-.652-.25-.62.054-1.304.703-1.578a9.967 9.967 0 0 1 2.79-.71c.768-.086 1.54-.132 1.935-.165 1.774.024 3.16.141 4.512.523z" opacity=".2"/>
    </g>
</svg>
